<svg id="Capa_1" enable-background="new 0 0 512.57 512.57" height="512" viewBox="0 0 512.57 512.57" width="512" xmlns="http://www.w3.org/2000/svg"><g><g><g><g><path d="m357.395 183.702h-217.127v158.525c15.13-7.717 69.953-34.254 108.357-34.254 38.465 0 93.666 26.544 108.77 34.191z" fill="#72869e"/></g><g><path d="m248.613 286.264c-26.825 0-61.208 11.572-86.084 21.656v-124.218h-22.262v158.525c35.366-16.889 78.654-37.361 119.5-33.599 34.328 4.483 66.762 18.449 97.627 33.536 0-5.928 0-18.633 0-24.638-21.606-9.924-72.305-31.262-108.781-31.262z" fill="#536275"/></g><g><path d="m434.433 296.429-23.068-19.179-53.97 64.914 28.13 13.091z" fill="#d69660"/></g><g><path d="m372.331 325.313-14.936 16.851 28.131 13.091 14.268-17.162z" fill="#9e5e28"/></g><g><path d="m63.203 296.429 23.069-19.179 53.969 64.914-28.13 13.091z" fill="#d69660"/></g><g><path d="m125.688 324.708-28.101 13.078 14.524 17.469 28.13-13.091z" fill="#9e5e28"/></g><g><path d="m404.792 466v46h-51.584v-22.314l46.831-62.146c3.104 12.305 4.753 25.19 4.753 38.46z" fill="#fbf2e2"/></g><g><path d="m375.666 496.905v-36.035l-22.458 28.816v22.314h51.584v-15.095z" fill="#f7e0ba"/></g><g><path d="m107.578 373.137 36.097 47.553-.311 68.996-75-99.209z" fill="#d15573"/></g><g><path d="m88.272 381.674-19.908 8.803 75 99.209.157-34.929z" fill="#c21d44"/></g><g><path d="m216.584 312.191 31.936 48.403 32.301-48.403s-6.856-4.625-32.195-4.625-32.042 4.625-32.042 4.625z" fill="#fbf2e2"/></g><g><path d="m237.285 307.924c-16.07 1.082-20.701 4.268-20.701 4.268l31.936 48.403 11.825-17.72z" fill="#f7e0ba"/></g><g><path d="m350.79 59.235s-20.618-21.966-20.928-22.297l.14-.068c-43.898-39.062-119.588-39.056-163.482 0l.14.068c-55.409 49.088-44.784 100.266-45.439 166.806h44.809v-67.754c38.971-6.645 67.774-19.965 82.231-59.278 14.457 39.313 43.259 52.632 82.231 59.278v67.754h44.808c-1.198-49.243 8.127-103.071-24.51-144.509z" fill="#72869e"/></g><g><g><path d="m375.26 182.702h-23.322c0-9.101 0-57.182 0-65.127-47.057-4.902-75.761-12.31-89.917-64.149h-13.376l-.385 23.288c14.457 39.313 43.259 52.632 82.231 59.278v67.754h44.809c-.16-6.613-.131-14.308-.04-21.044z" fill="#536275"/></g><g><path d="m258.987 8c-33.349-2.618-67.891 7.004-92.467 28.87l.14.068c-14.839 13.147-24.938 26.444-31.79 40.145-19.593 39.259-12.788 84.291-13.648 126.662h44.809v-21.043h-23.447c-.785-56.53-3.899-101.978 45.524-145.763l-.14-.068c19.32-17.192 44.8-26.813 71.019-28.871z" fill="#536275"/></g></g><g><path d="m153.899 203.746c10.424 42.556 48.281 74.679 93.881 75.017 46.43.344 85.418-31.779 95.61-75.018h-12.72v-67.754l-24.846-6.047c-23.211-5.649-42.561-21.608-52.525-43.319l-4.655-10.143-6.128 12.131c-10.388 20.565-29.212 35.592-51.568 41.166l-24.919 6.213v67.755z" fill="#fbf2e2"/></g><g><g><path d="m250.675 278.738c24.357-.53 46.502-10.003 63.31-25.256-41.52 25.133-101.081 11-127.274-28.646v-94.55l-20.681 5.706v67.755h-12.131c10.546 43.485 50.266 76.147 96.776 74.991z" fill="#f7e0ba"/></g></g><g><path d="m193.986 512.57h-43.64l130.474-199.972 35.713 12.148-73.317 127.754z" fill="#d15573"/></g><g><path d="m300.757 319.38-19.937-6.783-130.474 199.973h43.64l9.495-14.553h-19.277z" fill="#c21d44"/></g><g><path d="m226.757 395.458 21.762-34.458-32.018-48.402-35.713 12.148z" fill="#d15573"/></g><g><path d="m248.519 361-11.896-17.983-9.451 14.965-26.093-40.138-20.291 6.902 45.969 70.712z" fill="#c21d44"/></g><g><path d="m91.78 466v46h51.584v-22.314l-46.83-62.146c-3.105 12.305-4.754 25.19-4.754 38.46z" fill="#fbf2e2"/></g><g><path d="m113.449 497.595s.019-47.05.024-47.576l-16.939-22.479c-3.104 12.306-4.753 25.19-4.753 38.46v46h51.584v-14.405z" fill="#f7e0ba"/></g><g><path d="m341.231 79.824-32.533-32.534 63.646-31.112z" fill="#d15573"/></g><g><path d="m328.247 37.734-19.549 9.557 32.533 32.533 9.557-19.55z" fill="#c21d44"/></g><g><path d="m155.799 79.824 32.533-32.534-63.646-31.112z" fill="#d15573"/></g><g><path d="m153.933 30.475-29.247-14.297 31.113 63.646 14.949-14.949z" fill="#c21d44"/></g><g><path d="m226.757 395.458-46.252-70.711-81.986 36.253 45.311 59.689v91.311l6.516.57z" fill="#e5ecf5"/></g><g><path d="m166.061 414.196-47.146-62.108-20.396 8.912 45.311 59.689v91.311l6.516.57 15.715-24.085z" fill="#cad8eb"/></g><g><path d="m193.986 512.57 123.358-187.823 81.986 36.253-45.31 59.689v91.311l-6.517.57z" fill="#e5ecf5"/></g><g><g><path d="m230.07 498.084 107.865-164.232-20.591-9.105-123.358 187.823h159.222v-14.486z" fill="#cad8eb"/></g></g><g><path d="m389.305 373.137-36.097 47.553.31 68.996 75-99.209z" fill="#d15573"/></g><g><path d="m375.152 427.2 34.282-45.162-20.129-8.901-36.097 47.552.31 68.997 21.785-28.816z" fill="#c21d44"/></g><g><path d="" fill="#c21d44"/></g><g><path d="m473.977 106h15v15h-15z" fill="#c21d44"/></g><g><path d="m23.594 106h15v15h-15z" fill="#c21d44"/></g><g><path d="m181.019 91h15v15h-15z" fill="#fff"/></g><g><path d="m301.019 91h15v15h-15z" fill="#fff"/></g></g></g><g><path d="m248.728 217.07-18.346-12.22-8.314 12.48 26.68 17.771 26.569-17.779-8.34-12.463z"/><path d="m266.783 159.939h40.228v14.996h-40.228z" transform="matrix(.928 -.373 .373 .928 -41.738 119.019)"/><path d="m202.852 147.322h14.996v40.229h-14.996z" transform="matrix(.373 -.928 .928 .373 -23.428 300.214)"/><path d="m185.483 512h17.905l26.245-40.226-12.559-8.194z"/><path d="m228.438 440.939h14.938v14.995h-14.938z" transform="matrix(.546 -.838 .838 .546 -268.568 400.974)"/><path d="m409.405 264.761-44.532 53.561v-106.987h18.126v-76.986c0-4.645-.24-9.332-.713-13.93l-14.917 1.535c.421 4.091.635 8.261.635 12.395v61.99h-29.8v-66.25c-54.344-9.961-73.881-22.239-89.792-76.763-15.927 54.59-35.521 66.807-89.793 76.763v66.25h-29.8v-61.99c0-21.279 5.532-41.725 16.063-59.838l8.882 18.17 47.375-47.375-19.971-9.762c39.336-27.388 95.328-27.35 134.624.093l-19.78 9.669 47.376 47.375 8.739-17.876c5.945 10.296 10.283 21.364 12.929 33.047l14.625-3.312c-3.71-16.386-10.372-31.695-19.808-45.582l28.821-58.958-57.665 28.188c-46.814-37.425-118.249-37.464-165.108-.098l-57.463-28.09 28.686 58.682c-15.265 22.347-23.32 48.405-23.32 75.667v76.986h19.036v44.742h14.996v-44.742c30.272 99.478 172.052 99.124 202.023 0v119.997c-31.605-14.463-65.641-30.874-101.297-29.507-35.431-1.355-69.348 14.847-100.725 29.254v-60.007h-14.996v47.25l-44.532-53.561-34.592 28.76 48.132 57.892-14.948 6.61 9.211 12.134-39.184 17.327 31.59 41.787c-2.741 11.996-4.145 24.336-4.145 36.743v45.986h14.996v-45.986c0-6.882.487-13.737 1.418-20.514l35.621 47.119v19.381h22.576l125.305-190.884c7.208 1.772 14.282 4.08 21.192 6.941l-63.778 97.752 12.559 8.194 65.092-99.764 67.458 29.829-41.088 54.126v93.806h14.995v-19.382l35.622-47.12c.931 6.777 1.418 13.633 1.418 20.516v45.986h14.996v-45.986c0-12.408-1.404-24.748-4.145-36.744l31.589-41.786-39.184-17.327 9.211-12.134-14.53-6.425 48.285-58.077zm-70.265-197.535-17.672-17.673 34.574-16.9zm-163.457-17.672-17.671 17.672-16.9-34.573zm72.905 221.784c-38.099.026-71.702-24.294-84.504-60.004h9.53v-69.216c30.925-4.658 59.431-19.499 74.798-47.367 15.373 27.876 43.871 42.705 74.797 47.367v69.216h10.209c-12.522 35.829-46.097 60.004-84.83 60.004zm-35.39 49.694 26.777 40.585-13.158 20.168-35.145-53.732c7.017-2.905 14.202-5.239 21.526-7.021zm-138.346-25.567 11.531-9.586 44.002 52.925-14.259 6.305zm5.471 98.078 25.125-11.11 30.977 40.807v44.512zm71.097 103.799v-79.149l-41.088-54.126 67.465-29.832 40.072 61.264zm97.487-149.415-19.702-29.861c6.375-.821 12.836-1.246 19.376-1.246 6.677 0 13.272.441 19.777 1.297zm167.93 45.616-56.101 74.21v-44.513l30.977-40.807zm-49.644-54.555 44.157-53.11 11.531 9.586-41.429 49.828z"/><path d="m443.517 136.113h-14.995v14.995h-14.996v14.996h14.996v14.995h14.995v-14.995h14.996v-14.996h-14.996z"/><path d="m68.634 181.099v-14.995h14.996v-14.996h-14.996v-14.995h-14.995v14.995h-14.996v14.996h14.996v14.995z"/><path d="m159.001 361.045h14.996v14.996h-14.996z"/><path d="m323.378 361.045h14.996v14.996h-14.996z"/></g></g></svg>